<?xml version="1.0" standalone="no"?>
<!DOCTYPE svg PUBLIC "-//W3C//DTD SVG 20010904//EN"
 "http://www.w3.org/TR/2001/REC-SVG-20010904/DTD/svg10.dtd">
<svg version="1.0" xmlns="http://www.w3.org/2000/svg"
 width="545.000000pt" height="545.000000pt" viewBox="0 0 545.000000 545.000000"
 preserveAspectRatio="xMidYMid meet">
<metadata>
Created by potrace 1.11, written by Peter Selinger 2001-2013
</metadata>
<g transform="translate(0.000000,545.000000) scale(0.100000,-0.100000)"
fill="#000000" stroke="none">
<path d="M2332 4894 c-165 -82 -197 -306 -61 -428 68 -62 152 -84 237 -63 l51
14 193 -194 193 -193 -128 -128 -127 -127 0 -1888 0 -1887 75 0 75 0 0 1857 0
1856 343 344 343 344 43 -16 c91 -32 196 -8 266 61 59 56 78 103 79 189 0 59
-4 78 -29 123 -86 158 -289 189 -415 63 -74 -74 -99 -176 -65 -272 l16 -43
-186 -186 -185 -185 -187 187 -187 187 18 51 c65 181 -58 360 -248 360 -47 0
-75 -6 -114 -26z m177 -138 c80 -42 62 -180 -28 -207 -34 -10 -44 -9 -78 7
-54 27 -80 81 -64 134 6 22 23 48 38 59 30 25 91 28 132 7z m1202 -23 c31 -18
59 -67 59 -103 0 -35 -28 -79 -62 -96 -70 -36 -155 6 -165 82 -6 52 10 90 49
114 40 24 81 25 119 3z"/>
<path d="M917 4620 c-29 -9 -92 -52 -115 -80 -7 -8 -24 -37 -37 -65 -59 -120
-10 -268 111 -336 l54 -31 0 -144 0 -144 -149 0 -149 0 -6 26 c-4 14 -28 47
-54 73 -107 107 -266 108 -372 1 -106 -105 -106 -265 0 -370 129 -130 338 -95
423 70 l24 45 169 0 169 0 717 -415 718 -415 0 -1417 0 -1418 75 0 75 0 -2
1462 -3 1462 -521 300 c-286 166 -530 308 -542 316 -22 15 -22 16 108 240
l130 225 64 -3 c103 -6 190 42 248 136 33 54 37 163 8 230 -39 90 -145 162
-240 162 -97 0 -213 -79 -247 -168 -26 -68 -22 -148 10 -215 15 -30 27 -57 27
-61 0 -8 -248 -437 -259 -449 -4 -4 -66 26 -137 66 l-129 75 -3 169 -2 169 33
12 c79 29 157 148 157 242 0 97 -67 197 -160 239 -48 22 -140 27 -193 11z
m155 -160 c53 -41 61 -126 15 -167 -50 -46 -80 -52 -133 -27 -41 20 -64 59
-64 110 0 28 8 44 34 70 29 29 41 34 79 34 29 0 53 -7 69 -20z m798 -95 c42
-21 60 -53 60 -103 0 -37 -6 -50 -34 -78 -26 -26 -42 -34 -70 -34 -51 0 -90
23 -110 64 -22 46 -20 67 7 107 38 57 91 73 147 44z m-1430 -530 c102 -53 60
-215 -55 -215 -38 0 -83 26 -100 60 -53 103 52 208 155 155z"/>
<path d="M3289 3670 c-42 -12 -98 -54 -128 -96 -98 -136 -50 -329 99 -393 l50
-22 0 -137 0 -137 -175 -175 -175 -175 0 -1267 0 -1268 75 0 75 0 0 1238 0
1237 163 163 162 162 161 0 161 0 18 -40 c74 -163 298 -206 424 -79 79 79 103
198 57 294 -47 102 -131 156 -242 156 -102 0 -189 -53 -235 -143 l-19 -38
-150 0 -150 0 0 109 0 109 30 12 c16 7 49 34 74 60 158 168 40 442 -189 439
-33 0 -72 -4 -86 -9z m149 -156 c92 -64 48 -204 -64 -204 -56 0 -79 12 -99 50
-26 50 -20 97 19 136 28 28 41 34 78 34 24 0 54 -7 66 -16z m665 -574 c75 -83
-22 -220 -125 -177 -53 23 -73 52 -73 107 0 38 6 54 24 74 49 52 124 51 174
-4z"/>
<path d="M4968 3126 c-26 -7 -55 -19 -65 -26 -87 -66 -124 -133 -124 -223 0
-34 7 -78 15 -98 l15 -35 -202 -202 -202 -202 -315 0 -315 0 -282 -282 -283
-283 0 -887 0 -888 75 0 75 0 0 857 0 857 237 238 238 238 278 -2 279 -3 89
-154 c49 -85 89 -157 89 -160 0 -3 -14 -25 -30 -49 -89 -132 -43 -305 101
-381 58 -30 70 -33 129 -29 146 11 250 119 250 263 0 144 -103 252 -250 263
l-66 4 -88 155 -89 155 195 194 194 195 37 -16 c82 -34 200 -9 269 58 143 139
86 385 -103 441 -62 19 -88 19 -151 2z m148 -167 c78 -73 28 -199 -79 -199
-44 0 -94 39 -105 83 -15 55 14 117 63 138 32 14 95 3 121 -22z m-274 -1208
c75 -84 -6 -215 -115 -187 -35 8 -76 54 -83 91 -7 42 16 94 54 118 42 27 109
17 144 -22z"/>
<path d="M850 2889 c-190 -86 -209 -339 -35 -461 112 -78 272 -47 359 70 l39
52 232 0 232 0 179 -103 c98 -57 212 -122 252 -145 l72 -43 0 -1129 0 -1130
75 0 75 0 0 1174 0 1173 -306 177 -306 176 -248 0 -247 0 -17 44 c-21 55 -84
122 -139 147 -58 26 -158 25 -217 -2z m169 -143 c33 -18 51 -54 51 -105 0 -49
-30 -87 -80 -102 -83 -25 -166 58 -141 141 6 22 23 48 38 59 30 25 91 28 132
7z"/>
<path d="M960 1765 l-165 -165 -44 22 c-92 45 -235 17 -303 -60 -53 -61 -71
-115 -66 -196 5 -80 22 -120 75 -172 52 -52 105 -74 183 -74 70 0 136 24 179
63 67 62 100 166 81 253 l-11 48 128 128 c70 70 132 128 138 128 5 -1 179 -99
385 -218 l375 -217 3 -653 2 -652 75 0 75 0 -2 696 -3 695 -465 269 c-256 148
-467 270 -470 270 -3 0 -79 -74 -170 -165z m-252 -291 c37 -25 56 -80 43 -125
-16 -52 -53 -79 -108 -79 -38 0 -50 5 -79 34 -28 28 -34 41 -34 78 0 24 7 54
16 67 35 49 108 61 162 25z"/>
</g>
</svg>
